<svg width="500" height="500" viewBox="0 0 500 500" fill="none" xmlns="http://www.w3.org/2000/svg">
<rect width="500" height="500" rx="56" fill="#022C22"/>
<path fill-rule="evenodd" clip-rule="evenodd" d="M199.656 120.676L213.181 216.911C215.304 232.017 211.33 247.347 202.161 259.539L180.483 288.282C205.511 283.886 231.18 284.748 255.856 290.812L266.844 293.515C295.874 300.648 326.363 299.047 354.486 288.911L297.691 246.114C285.509 236.929 277.472 223.282 275.348 208.174L261.823 111.939C240.999 114.077 220.262 116.991 199.656 120.676ZM293.151 109.311L297.132 109.068C299.213 108.978 301.254 108.474 303.137 107.587C305.021 106.699 306.709 105.446 308.104 103.9C309.498 102.354 310.571 100.546 311.26 98.5806C311.949 96.6157 312.24 94.5334 312.116 92.4549C311.992 90.3764 311.456 88.3434 310.539 86.4742C309.621 84.605 308.341 82.937 306.773 81.5674C305.205 80.1978 303.379 79.154 301.404 78.4967C299.428 77.8394 297.341 77.5817 295.265 77.7388C249.096 80.49 203.222 86.9373 158.083 97.0186C154.078 97.9805 150.611 100.478 148.431 103.973C146.251 107.468 145.533 111.68 146.431 115.7C147.328 119.72 149.77 123.226 153.23 125.461C156.69 127.697 160.889 128.483 164.923 127.649L168.817 126.785L182.097 221.279C183.061 228.138 181.252 235.112 177.084 240.643L105.241 336.006C78.5975 371.364 100.397 424.384 147.348 424.653C188.758 424.898 230.675 422.135 272.887 416.202C315.099 410.27 356.154 401.372 395.89 389.702C440.947 376.502 447.309 319.524 411.93 292.883L316.588 221.037C311.053 216.865 307.4 210.668 306.432 203.805L293.151 109.311Z" fill="#10B981"/>
</svg>
