<svg width="500" height="500" viewBox="0 0 500 500" fill="none" xmlns="http://www.w3.org/2000/svg">
<path fill-rule="evenodd" clip-rule="evenodd" d="M210.301 77.6824V201.275C210.301 220.676 202.583 239.279 188.877 253.011L156.489 285.373C188.787 284.266 220.961 289.895 250.966 301.9L264.326 307.249C299.623 321.371 338.305 324.75 375.516 316.963L311.565 253.011C297.847 239.288 290.141 220.678 290.141 201.275V77.6824C263.537 76.6892 236.905 76.6892 210.301 77.6824ZM330.061 79.918L335.117 80.3172C337.753 80.5712 340.413 80.2982 342.943 79.5141C345.472 78.73 347.82 77.4505 349.85 75.75C351.88 74.0496 353.551 71.9622 354.766 69.6095C355.981 67.2568 356.716 64.6858 356.928 62.0462C357.14 59.4067 356.825 56.7513 356 54.2349C355.176 51.7185 353.859 49.3913 352.126 47.3888C350.393 45.3863 348.28 43.7486 345.908 42.5711C343.536 41.3936 340.954 40.6999 338.311 40.5302C279.679 35.8233 220.763 35.8233 162.131 40.5302C156.916 41.0328 152.109 43.565 148.745 47.5807C145.381 51.5963 143.73 56.7735 144.149 61.9952C144.569 67.2168 147.024 72.0644 150.985 75.4921C154.946 78.9198 160.097 80.6528 165.324 80.3172L170.381 79.918V201.275C170.381 210.084 166.868 218.547 160.64 224.774L53.2821 332.159C13.4685 371.973 31.539 442.605 90.6206 451.254C142.73 458.892 196.009 462.831 250.221 462.831C304.432 462.831 357.712 458.892 409.821 451.227C468.903 442.578 487 371.946 447.16 332.133L339.801 224.774C333.569 218.541 330.066 210.089 330.061 201.275V79.918Z" fill="#10B981"/>
</svg>
